<svg width="31" height="28" viewBox="0 0 31 28" fill="none" xmlns="http://www.w3.org/2000/svg">
<path d="M1.25 6.25C1.25 3.89298 1.25 2.71447 2.0701 1.98223C2.8902 1.25 4.21013 1.25 6.85 1.25C9.48987 1.25 10.8098 1.25 11.6299 1.98223C12.45 2.71447 12.45 3.89298 12.45 6.25V21.25C12.45 23.607 12.45 24.7855 11.6299 25.5178C10.8098 26.25 9.48987 26.25 6.85 26.25C4.21013 26.25 2.8902 26.25 2.0701 25.5178C1.25 24.7855 1.25 23.607 1.25 21.25V6.25Z" stroke="black" stroke-width="2.5"/>
<path d="M18.05 6.25C18.05 3.89298 18.05 2.71447 18.8701 1.98223C19.6902 1.25 21.0101 1.25 23.65 1.25C26.2899 1.25 27.6098 1.25 28.4299 1.98223C29.25 2.71447 29.25 3.89298 29.25 6.25V21.25C29.25 23.607 29.25 24.7855 28.4299 25.5178C27.6098 26.25 26.2899 26.25 23.65 26.25C21.0101 26.25 19.6902 26.25 18.8701 25.5178C18.05 24.7855 18.05 23.607 18.05 21.25V6.25Z" stroke="black" stroke-width="2.5"/>
</svg>
