<svg width="30" height="30" viewBox="0 0 30 30" fill="none" xmlns="http://www.w3.org/2000/svg">
<path d="M22.275 7.42656H22.2885M8.09998 1.35156H21.6C25.3279 1.35156 28.35 4.37364 28.35 8.10156V21.6016C28.35 25.3295 25.3279 28.3516 21.6 28.3516H8.09998C4.37205 28.3516 1.34998 25.3295 1.34998 21.6016V8.10156C1.34998 4.37364 4.37205 1.35156 8.09998 1.35156ZM20.25 14.0011C20.4166 15.1246 20.2247 16.2721 19.7015 17.2802C19.1784 18.2884 18.3507 19.106 17.3362 19.6166C16.3216 20.1273 15.1719 20.305 14.0505 20.1246C12.9291 19.9441 11.8932 19.4147 11.09 18.6115C10.2869 17.8084 9.75741 16.7724 9.57697 15.6511C9.39652 14.5297 9.57426 13.3799 10.0849 12.3654C10.5956 11.3508 11.4131 10.5231 12.4213 9.99999C13.4295 9.47686 14.5769 9.28496 15.7005 9.45156C16.8465 9.62151 17.9075 10.1555 18.7268 10.9748C19.546 11.794 20.08 12.855 20.25 14.0011Z" stroke="#330833" stroke-width="2.7" stroke-linecap="round" stroke-linejoin="round"/>
</svg>
