<svg width="30" height="30" viewBox="0 0 30 30" fill="none" xmlns="http://www.w3.org/2000/svg">
<path d="M21.42 1.33594H8.0325C4.33564 1.33594 1.33875 4.33283 1.33875 8.02969V21.4172C1.33875 25.114 4.33564 28.1109 8.0325 28.1109H21.42C25.1168 28.1109 28.1137 25.114 28.1137 21.4172V8.02969C28.1137 4.33283 25.1168 1.33594 21.42 1.33594Z" fill="#572C54"/>
<path d="M20.0812 13.88C20.2465 14.9942 20.0562 16.1321 19.5374 17.1319C19.0186 18.1316 18.1978 18.9424 17.1917 19.4488C16.1856 19.9552 15.0455 20.1314 13.9334 19.9525C12.8214 19.7736 11.7941 19.2485 10.9976 18.4521C10.2012 17.6556 9.67612 16.6283 9.49718 15.5163C9.31823 14.4042 9.4945 13.2641 10.0009 12.258C10.5073 11.2519 11.318 10.4311 12.3178 9.91229C13.3176 9.39353 14.4555 9.20322 15.5697 9.36844C16.7062 9.53697 17.7583 10.0665 18.5707 10.879C19.3831 11.6914 19.9127 12.7435 20.0812 13.88Z" fill="#572C54"/>
<path d="M22.0894 7.36031H22.1028M8.0325 1.33594H21.42C25.1169 1.33594 28.1137 4.33283 28.1137 8.02969V21.4172C28.1137 25.114 25.1169 28.1109 21.42 28.1109H8.0325C4.33564 28.1109 1.33875 25.114 1.33875 21.4172V8.02969C1.33875 4.33283 4.33564 1.33594 8.0325 1.33594ZM20.0812 13.88C20.2465 14.9942 20.0562 16.1321 19.5374 17.1319C19.0186 18.1316 18.1978 18.9424 17.1917 19.4488C16.1856 19.9552 15.0455 20.1314 13.9334 19.9525C12.8214 19.7736 11.7941 19.2485 10.9976 18.4521C10.2012 17.6556 9.67612 16.6283 9.49718 15.5163C9.31823 14.4042 9.4945 13.2641 10.0009 12.258C10.5073 11.2519 11.318 10.4311 12.3178 9.91229C13.3176 9.39353 14.4555 9.20322 15.5697 9.36844C16.7062 9.53697 17.7583 10.0665 18.5707 10.879C19.3831 11.6914 19.9127 12.7435 20.0812 13.88Z" stroke="#FF74FB" stroke-width="2.6775" stroke-linecap="round" stroke-linejoin="round"/>
</svg>
