<svg width="30" height="31" viewBox="0 0 30 31" fill="none" xmlns="http://www.w3.org/2000/svg">
<circle cx="3.80778" cy="3.80769" r="3.80769" fill="#572C54"/>
<path d="M0.761627 12.7719C0.761627 12.0263 1.36604 11.4219 2.11163 11.4219H5.50394C6.24952 11.4219 6.85394 12.0263 6.85394 12.7719V29.1103C6.85394 29.8559 6.24952 30.4603 5.50394 30.4603H2.11163C1.36604 30.4603 0.761627 29.8559 0.761627 29.1103V12.7719Z" fill="#572C54"/>
<path d="M15.8886 30.4566H12.7732C12.0276 30.4566 11.4232 29.8522 11.4232 29.1066V13.89C11.4232 13.1444 12.0276 12.54 12.7732 12.54H16.6775C16.9874 12.54 17.2386 12.7912 17.2386 13.101C17.2386 13.4109 17.4898 13.662 17.7996 13.662H18.5206C18.7683 13.662 19.0134 13.5863 19.2253 13.4581C24.9113 10.0182 28.7311 14.2912 29.6481 17.2179C29.6848 17.3348 29.7001 17.4554 29.7001 17.5779V29.1066C29.7001 29.8522 29.0957 30.4566 28.3501 30.4566H25.2347C24.4891 30.4566 23.8847 29.8522 23.8847 29.1066V19.4081C23.8847 19.3093 23.8747 19.2114 23.8396 19.119C23.6745 18.6852 22.9803 17.3953 20.5616 17.3933C18.1419 17.3914 17.4482 18.6851 17.2835 19.1193C17.2485 19.2115 17.2386 19.3092 17.2386 19.4078V29.1066C17.2386 29.8522 16.6342 30.4566 15.8886 30.4566Z" fill="#572C54"/>
</svg>
