<?xml version="1.0" encoding="UTF-8"?>
<svg id="Capa_2" data-name="Capa 2" xmlns="http://www.w3.org/2000/svg" viewBox="0 0 1239.51 350.5">
  <g id="Marca_vectorials_itio_web" data-name="Marca vectorials itio web">
    <g>
      <g>
        <path fill="#430e4c" stroke-width="0px" d="m563.94,202.19h-59.01V42.92c.29-.07.58-.15.88-.22,19.37,53.03,38.71,106.06,58.13,159.49Z"/>
        <path fill="#430e4c" stroke-width="0px" d="m567.37,202.33v-11.41h11.37v11.41h-11.37Z"/>
        <path fill="#430e4c" stroke-width="0px" d="m390.98,46.04h76.27c-.48,1.78-.8,3.41-1.36,4.96-6.22,16.96-12.5,33.91-18.72,50.89-1.42,3.85-2.85,7.71-4.02,11.64-.54,1.8-.63,3.77-.63,5.63-.04,25.91-.02,51.79-.02,77.7v5.21h-26.64v-5.36c-.02-25.88,0-51.79-.1-77.68-.02-2.58-.48-5.3-1.36-7.71-7.46-20.75-15.06-41.42-22.62-62.14-.34-.94-.48-1.93-.8-3.16Z"/>
        <path fill="#430e4c" stroke-width="0px" d="m384.6,49.77c.02,40.8.1,81.59-.04,122.39-.04,12.31-5.01,22.28-15.9,28.69-9.21,5.4-21.17,3.92-29.15-3.23-7.62-6.81-10.81-15.54-11.6-25.42-.13-1.76-.08-3.52-.08-5.3V46.02h26.39c.08,1.82.23,3.52.23,5.21.02,26.95.02,53.91.02,80.86,0,1.17,0,2.35.02,3.52.04,1.91,1.19,2.14,3.35,1.65.02-5.8.06-11.77.08-17.74.02-6.18,0-12.38,0-18.56v-54.93h26.32c.13,1.24.36,2.49.36,3.73Z"/>
        <path fill="#430e4c" stroke-width="0px" d="m718.06,32.13v13.31h-15.01l15.01-13.31Z"/>
        <path fill="#430e4c" stroke-width="0px" d="m318.29,76.08c10.89,21.15,8.04,48.9-13.68,68.63,6.87,18.83,13.8,37.82,20.73,56.84-3.41.98-49.8,1.3-56.4.44V46.04c20.06-.63,40.08,12.04,49.34,30.03Z"/>
        <path fill="#430e4c" stroke-width="0px" d="m978.2,46.34h26.8v90.68c1.81.74,2.9.71,3.11-.91.18-1.3.12-2.64.12-3.97,0-26.8,0-53.59,0-80.39v-5.49h26.58c.09,1.49.24,2.78.24,4.07,0,40.64.03,81.27-.02,121.91-.01,10.97-4.27,20.07-12.99,26.78-12.21,9.4-27.85,5.82-36.6-5.93-4.5-6.04-7.07-12.86-7.12-20.51-.01-1.62-.12-3.24-.12-4.86,0-38.57,0-77.15,0-115.72v-5.66Z"/>
        <path fill="#430e4c" stroke-width="0px" d="m946.62,125.36V46.42h25.93c.87,3.16,1.19,148.74.32,155.96h-58.24V43.62c.28-.08.56-.16.85-.23,10.22,27.27,19.98,54.7,30.03,82.03.37-.02.74-.04,1.11-.06Z"/>
        <path fill="#430e4c" stroke-width="0px" d="m889.13,202.33h-57.11c11.17-30.67,22.21-60.97,33.48-91.93h-25.88c-1.03-3.67-1.27-58.33-.37-64.08h49.59c.1,1.31.29,2.57.29,3.84.02,19.44.04,38.88-.01,58.31-.02,5.73-2.9,10.72-4.61,16-1.39,4.29-3.21,8.43-5.03,13.11h9.35v-11.72h21.38v11.7h-20.85c-.45,5.8-.17,11.19-.22,16.56-.05,5.3-.01,10.6-.01,15.9v32.31Z"/>
        <path fill="#430e4c" stroke-width="0px" d="m828.09,137.84v64.11h-49.86V45.97h49.82v26.47h-23.06v10.89h22.58c.98,3.64,1.15,20.98.31,26.81h-22.91v27.71h23.12Z"/>
        <path fill="#430e4c" stroke-width="0px" d="m773.83,97.32c1.3,19.1-5.34,34.89-19.92,47.29-1.78,1.51-3.79,2.87-5.91,3.81-2.58,1.15-3.2,2.89-3.18,5.53.1,14.28.04,28.57.04,42.87v5.03h-26.72V51.98c0-2.18-.06-4.34-.08-6.53,10.76.44,20.96,2.89,30.03,8.88,15.39,10.2,24.46,24.29,25.74,43Z"/>
        <path fill="#430e4c" stroke-width="0px" d="m714.19,124.09c0-15.75.08-31.5-.04-47.23-.08-9.99-3.43-18.68-10.91-25.63-10.49-9.76-26.62-9.03-36.42,1.47-6.49,6.99-9.34,15.33-9.38,24.54-.21,31.21-.25,62.39-.08,93.59.04,9.49,2.95,18.14,9.74,25.32,9.53,10.07,25.55,10.83,35.79,1.51,7.64-6.97,11.18-15.75,11.27-25.91.15-15.87.04-31.77.04-47.67Zm-27.08,41.95c-1.55.38-2.83.67-3.02-1.32-.12-1.17-.1-2.34-.1-3.52v-82.53c0-1.03,0-2.05.04-3.08.08-1.91,1.24-2.09,3.08-1.57v92.02Z"/>
        <path fill="none" d="m687.11,74.02v92.02c-1.55.38-2.83.67-3.02-1.32-.12-1.17-.1-2.34-.1-3.52v-82.53c0-1.03,0-2.05.04-3.08.08-1.91,1.24-2.09,3.08-1.57Z"/>
        <path fill="#430e4c" stroke-width="0px" d="m653.13,137.8v63.54c-2.95,1.05-42.35,1.47-49.11.52-.9-3.04-1.15-150.14-.23-155.81h25.91c.46,5.07.15,10.16.21,15.23.04,5.01,0,10.01,0,15.02v61.51h23.23Z"/>
        <g>
          <path fill="#430e4c" stroke-width="0px" d="m270.68,310.14c-2.89-3.13-4.33-7.55-4.33-13.25v-39.24c0-5.71,1.44-10.12,4.33-13.26,2.89-3.13,7.08-4.7,12.58-4.7s9.69,1.57,12.57,4.7c2.89,3.13,4.33,7.55,4.33,13.26v7.72h-10.85v-8.45c0-4.52-1.91-6.78-5.74-6.78s-5.74,2.26-5.74,6.78v40.81c0,4.45,1.91,6.68,5.74,6.68s5.74-2.22,5.74-6.68v-11.17h10.85v10.33c0,5.71-1.44,10.12-4.33,13.25s-7.08,4.7-12.57,4.7-9.69-1.57-12.58-4.7Z"/>
          <path fill="#430e4c" stroke-width="0px" d="m311.02,310.09c-2.92-3.17-4.38-7.71-4.38-13.62v-55.73h11.48v56.56c0,2.5.5,4.31,1.51,5.43,1.01,1.11,2.45,1.67,4.33,1.67s3.32-.55,4.33-1.67c1.01-1.11,1.51-2.92,1.51-5.43v-56.56h11.06v55.73c0,5.91-1.46,10.45-4.38,13.62-2.92,3.17-7.17,4.75-12.73,4.75s-9.81-1.58-12.73-4.75Z"/>
          <path fill="#430e4c" stroke-width="0px" d="m349.01,240.74h17.32c5.91,0,10.23,1.37,12.94,4.12,2.71,2.75,4.07,6.97,4.07,12.68v2.92c0,3.76-.61,6.82-1.83,9.18-1.22,2.37-3.08,4.07-5.58,5.11v.21c5.7,1.95,8.56,7.03,8.56,15.24v6.26c0,5.64-1.48,9.93-4.43,12.89-2.96,2.96-7.29,4.44-12.99,4.44h-18.06v-73.05Zm15.97,29.74c2.3,0,4.02-.59,5.16-1.78,1.15-1.18,1.72-3.16,1.72-5.95v-4.07c0-2.64-.47-4.56-1.41-5.74-.94-1.18-2.42-1.77-4.44-1.77h-5.53v19.31h4.49Zm2.09,32.87c2.02,0,3.51-.54,4.49-1.62.97-1.08,1.46-2.94,1.46-5.58v-6.36c0-3.34-.58-5.65-1.72-6.94-1.15-1.29-3.05-1.93-5.69-1.93h-5.11v22.44h6.58Z"/>
          <path fill="#430e4c" stroke-width="0px" d="m400.04,240.74h15.55l11.9,73.05h-11.48l-2.09-14.51v.21h-13.04l-2.09,14.3h-10.64l11.9-73.05Zm12.52,48.84l-5.12-36.11h-.21l-5.01,36.11h10.33Z"/>
          <path fill="#430e4c" stroke-width="0px" d="m433.02,240.74h14.4l11.17,43.73h.21v-43.73h10.23v73.05h-11.79l-13.78-53.33h-.21v53.33h-10.23v-73.05Z"/>
          <path fill="#430e4c" stroke-width="0px" d="m510.98,240.74h17.53c5.7,0,9.98,1.53,12.84,4.59,2.85,3.06,4.28,7.55,4.28,13.46v36.95c0,5.91-1.43,10.4-4.28,13.46-2.85,3.06-7.13,4.59-12.84,4.59h-17.53v-73.05Zm17.32,62.62c1.88,0,3.32-.56,4.33-1.67,1.01-1.11,1.51-2.92,1.51-5.43v-37.99c0-2.5-.51-4.31-1.51-5.43-1.01-1.11-2.45-1.67-4.33-1.67h-5.84v52.18h5.84Z"/>
          <path fill="#430e4c" stroke-width="0px" d="m553.35,240.74h17.01c5.91,0,10.23,1.37,12.94,4.12,2.71,2.75,4.07,6.97,4.07,12.68v4.49c0,7.58-2.5,12.39-7.51,14.4v.21c2.78.83,4.75,2.54,5.9,5.11,1.15,2.57,1.72,6.02,1.72,10.33v12.84c0,2.09.07,3.78.21,5.06.14,1.29.49,2.56,1.04,3.81h-11.69c-.42-1.18-.7-2.3-.84-3.34-.14-1.04-.21-2.92-.21-5.64v-13.36c0-3.34-.54-5.67-1.62-6.99-1.08-1.32-2.94-1.98-5.58-1.98h-3.97v31.31h-11.48v-73.05Zm15.66,31.31c2.3,0,4.02-.59,5.16-1.77,1.15-1.18,1.72-3.17,1.72-5.95v-5.64c0-2.64-.47-4.56-1.41-5.74-.94-1.18-2.42-1.77-4.44-1.77h-5.22v20.87h4.18Z"/>
          <path fill="#430e4c" stroke-width="0px" d="m599.37,310.09c-2.92-3.17-4.38-7.71-4.38-13.62v-55.73h11.48v56.56c0,2.5.5,4.31,1.51,5.43,1.01,1.11,2.45,1.67,4.33,1.67s3.32-.55,4.33-1.67c1.01-1.11,1.51-2.92,1.51-5.43v-56.56h11.06v55.73c0,5.91-1.46,10.45-4.38,13.62s-7.17,4.75-12.73,4.75-9.81-1.58-12.73-4.75Z"/>
          <path fill="#430e4c" stroke-width="0px" d="m637.36,240.74h16.38l7.31,52.29h.21l7.3-52.29h16.38v73.05h-10.85v-55.31h-.21l-8.35,55.31h-9.6l-8.35-55.31h-.21v55.31h-10.02v-73.05Z"/>
          <path fill="#430e4c" stroke-width="0px" d="m693.5,240.74h16.38l7.31,52.29h.21l7.3-52.29h16.38v73.05h-10.85v-55.31h-.21l-8.35,55.31h-9.6l-8.35-55.31h-.21v55.31h-10.02v-73.05Z"/>
          <path fill="#430e4c" stroke-width="0px" d="m749.65,240.74h31.31v10.44h-19.83v19.31h15.76v10.44h-15.76v22.44h19.83v10.44h-31.31v-73.05Z"/>
          <path fill="#430e4c" stroke-width="0px" d="m787.53,240.74h17.01c5.91,0,10.23,1.37,12.94,4.12,2.71,2.75,4.07,6.97,4.07,12.68v4.49c0,7.58-2.5,12.39-7.51,14.4v.21c2.78.83,4.75,2.54,5.9,5.11,1.15,2.57,1.72,6.02,1.72,10.33v12.84c0,2.09.07,3.78.21,5.06.14,1.29.49,2.56,1.04,3.81h-11.69c-.42-1.18-.7-2.3-.84-3.34-.14-1.04-.21-2.92-.21-5.64v-13.36c0-3.34-.54-5.67-1.62-6.99-1.08-1.32-2.94-1.98-5.58-1.98h-3.97v31.31h-11.48v-73.05Zm15.66,31.31c2.3,0,4.02-.59,5.16-1.77,1.15-1.18,1.72-3.17,1.72-5.95v-5.64c0-2.64-.47-4.56-1.41-5.74-.94-1.18-2.42-1.77-4.44-1.77h-5.22v20.87h4.18Z"/>
          <path fill="#430e4c" stroke-width="0px" d="m854.78,311.74c-1.37-1.81-2.06-4.44-2.06-7.89v-4.84c0-2.43.42-4.46,1.26-6.1.84-1.63,2.21-2.83,4.11-3.58v-.13c-1.72-.71-2.99-1.85-3.81-3.41s-1.23-3.59-1.23-6.07v-.86c0-3.75.91-6.6,2.72-8.55,1.81-1.94,4.53-2.92,8.15-2.92h8.35v6.63h-8.22c-1.19,0-2.11.35-2.75,1.06-.64.71-.96,1.86-.96,3.45v2.85c0,1.77.36,3.03,1.09,3.78.73.75,1.82,1.13,3.28,1.13h2.85v-5.17h7.16v5.17h2.05v6.63h-2.05v15.25c0,1.32.04,2.4.13,3.22s.31,1.62.66,2.42h-7.29c-.35-.97-.57-2.19-.66-3.65h-.13c-.79,1.46-1.71,2.54-2.75,3.25s-2.33,1.06-3.88,1.06c-2.65,0-4.66-.91-6.03-2.72Zm12.79-8.09v-10.74h-2.79c-1.68,0-2.89.45-3.65,1.36s-1.13,2.42-1.13,4.54v4.71c0,1.55.31,2.65.93,3.31.62.66,1.48,1,2.58,1,2.3,0,3.65-1.39,4.04-4.18Z"/>
          <path fill="#430e4c" stroke-width="0px" d="m910.93,310.14c-2.89-3.13-4.33-7.55-4.33-13.25v-39.24c0-5.71,1.44-10.12,4.33-13.26,2.89-3.13,7.08-4.7,12.58-4.7s9.69,1.57,12.57,4.7c2.89,3.13,4.33,7.55,4.33,13.26v7.72h-10.85v-8.45c0-4.52-1.91-6.78-5.74-6.78s-5.74,2.26-5.74,6.78v40.81c0,4.45,1.91,6.68,5.74,6.68s5.74-2.22,5.74-6.68v-11.17h10.85v10.33c0,5.71-1.44,10.12-4.33,13.25-2.89,3.13-7.08,4.7-12.57,4.7s-9.69-1.57-12.58-4.7Z"/>
          <path fill="#430e4c" stroke-width="0px" d="m951.16,310.04c-2.99-3.2-4.49-7.72-4.49-13.57v-38.41c0-5.84,1.49-10.37,4.49-13.57,2.99-3.2,7.3-4.8,12.94-4.8s9.95,1.6,12.94,4.8c2.99,3.2,4.49,7.72,4.49,13.57v38.41c0,5.84-1.5,10.37-4.49,13.57-2.99,3.2-7.31,4.8-12.94,4.8s-9.95-1.6-12.94-4.8Zm18.89-12.84v-39.87c0-4.8-1.98-7.2-5.95-7.2s-5.95,2.4-5.95,7.2v39.87c0,4.8,1.98,7.2,5.95,7.2s5.95-2.4,5.95-7.2Z"/>
          <path fill="#430e4c" stroke-width="0px" d="m989.25,240.74h16.38l7.31,52.29h.21l7.3-52.29h16.38v73.05h-10.85v-55.31h-.21l-8.35,55.31h-9.6l-8.35-55.31h-.21v55.31h-10.02v-73.05Z"/>
          <path fill="#430e4c" stroke-width="0px" d="m1045.4,240.74h16.91c5.71,0,9.98,1.53,12.84,4.59,2.85,3.06,4.28,7.55,4.28,13.46v7.2c0,5.92-1.43,10.4-4.28,13.46-2.85,3.06-7.13,4.59-12.84,4.59h-5.43v29.74h-11.48v-73.05Zm16.91,32.87c1.88,0,3.29-.52,4.23-1.57.94-1.04,1.41-2.82,1.41-5.32v-8.66c0-2.5-.47-4.28-1.41-5.32-.94-1.04-2.35-1.56-4.23-1.56h-5.43v22.44h5.43Z"/>
          <path fill="#430e4c" stroke-width="0px" d="m1089.33,310.04c-2.99-3.2-4.49-7.72-4.49-13.57v-38.41c0-5.84,1.49-10.37,4.49-13.57,2.99-3.2,7.3-4.8,12.94-4.8s9.95,1.6,12.94,4.8c2.99,3.2,4.49,7.72,4.49,13.57v38.41c0,5.84-1.5,10.37-4.49,13.57-2.99,3.2-7.31,4.8-12.94,4.8s-9.95-1.6-12.94-4.8Zm18.89-12.84v-39.87c0-4.8-1.98-7.2-5.95-7.2s-5.95,2.4-5.95,7.2v39.87c0,4.8,1.98,7.2,5.95,7.2s5.95-2.4,5.95-7.2Z"/>
          <path fill="#430e4c" stroke-width="0px" d="m1129.72,310.09c-2.85-3.17-4.28-7.71-4.28-13.62v-4.17h10.85v5.01c0,4.73,1.98,7.1,5.95,7.1,1.95,0,3.43-.57,4.44-1.72,1.01-1.15,1.51-3.01,1.51-5.58,0-3.06-.7-5.76-2.09-8.09-1.39-2.33-3.97-5.13-7.72-8.4-4.73-4.17-8.04-7.95-9.91-11.32-1.88-3.37-2.82-7.18-2.82-11.43,0-5.77,1.46-10.24,4.38-13.41,2.92-3.17,7.17-4.75,12.73-4.75s9.65,1.58,12.47,4.75c2.82,3.17,4.23,7.71,4.23,13.62v3.03h-10.85v-3.76c0-2.5-.49-4.33-1.46-5.48-.97-1.15-2.4-1.72-4.28-1.72-3.83,0-5.74,2.33-5.74,6.99,0,2.64.71,5.11,2.14,7.41,1.43,2.3,4.02,5.08,7.77,8.35,4.8,4.17,8.11,7.97,9.92,11.38,1.81,3.41,2.71,7.41,2.71,12,0,5.99-1.48,10.58-4.44,13.78-2.96,3.2-7.25,4.8-12.89,4.8s-9.78-1.58-12.63-4.75Z"/>
          <path fill="#430e4c" stroke-width="0px" d="m1166.24,240.74h31.31v10.44h-19.83v19.31h15.76v10.44h-15.76v22.44h19.83v10.44h-31.31v-73.05Z"/>
          <path fill="#430e4c" stroke-width="0px" d="m1204.13,240.74h17.01c5.91,0,10.23,1.37,12.94,4.12,2.71,2.75,4.07,6.97,4.07,12.68v4.49c0,7.58-2.5,12.39-7.51,14.4v.21c2.78.83,4.75,2.54,5.9,5.11,1.15,2.57,1.72,6.02,1.72,10.33v12.84c0,2.09.07,3.78.21,5.06.14,1.29.49,2.56,1.04,3.81h-11.69c-.42-1.18-.7-2.3-.84-3.34-.14-1.04-.21-2.92-.21-5.64v-13.36c0-3.34-.54-5.67-1.62-6.99-1.08-1.32-2.94-1.98-5.58-1.98h-3.97v31.31h-11.48v-73.05Zm15.66,31.31c2.3,0,4.02-.59,5.16-1.77,1.15-1.18,1.72-3.17,1.72-5.95v-5.64c0-2.64-.47-4.56-1.41-5.74-.94-1.18-2.42-1.77-4.44-1.77h-5.22v20.87h4.18Z"/>
        </g>
        <polygon fill="#f426ff" stroke-width="0px" points=".34 328.76 .34 350.49 18.01 350.49 .34 328.76"/>
        <polygon fill="#f426ff" stroke-width="0px" points=".37 295.13 .37 319.97 25.3 350.49 45.24 350.49 .37 295.13"/>
        <path fill="#f426ff" stroke-width="0px" d="m102.63,350.49h-19.93L.39,250.75v-.2c6.47-.01,12.84-.52,19.05-1.5l83.19,101.43Z"/>
        <path fill="#430e4c" stroke-width="0px" d="m7.46,234.46c-2.34.14-4.69.23-7.08.24v-6.48c.66,0,1.31-.02,1.95-.02l5.13,6.25Z"/>
        <path fill="#f426ff" stroke-width="0px" d="m129.57,350.5h-19.94L25.81,247.9c5.71-1.19,11.3-2.78,16.71-4.72l45.49,56.09,11,13.57h.01l30.54,37.65Z"/>
        <path fill="#430e4c" stroke-width="0px" d="m31.84,230.01c-5.67,1.72-11.54,3-17.57,3.77l-4.87-5.96c6.19-.53,12.22-1.63,18.03-3.24l4.4,5.43Z"/>
        <path fill="#430e4c" stroke-width="0px" d="m16.47,211.06c-5.22,1-10.59,1.51-16.08,1.51v-7.57c3.58,0,7.11-.26,10.57-.73l5.51,6.79Z"/>
        <path fill="#430e4c" stroke-width="0px" d="m70.64,208.9c-3.9,3.32-8.04,6.33-12.38,9.07l-4.13-5.01c4.37-2.69,8.53-5.71,12.41-9.03l4.09,4.96Z"/>
        <path fill="#430e4c" stroke-width="0px" d="m56.62,191.86c-3.88,3.32-8.09,6.3-12.52,8.9l-4.9-5.96c4.5-2.51,8.7-5.48,12.59-8.8l4.84,5.87Z"/>
        <path fill="#430e4c" stroke-width="0px" d="m41.85,173.92c-3.88,3.34-8.17,6.22-12.78,8.56l-5.21-6.32c4.71-2.19,9.06-5.01,12.94-8.36l5.04,6.12Z"/>
        <path fill="#430e4c" stroke-width="0px" d="m26.78,155.61v.02c-3.88,3.38-8.43,6.06-13.41,7.77l-5.46-6.64c5.24-1.24,9.96-3.77,13.86-7.22l5.01,6.08Z"/>
        <path fill="#430e4c" stroke-width="0px" d="m11.67,137.27c-2.93,2.79-6.91,4.51-11.3,4.51v-9.14c2.18,0,4.16-.87,5.64-2.26l5.66,6.88Z"/>
        <path fill="#f426ff" stroke-width="0px" d="m157.44,350.5h-19.93l-28.63-35.04-13.65-16.71-6.21-7.6s0-.01-.01-.02l-2.67-3.26s-.05-.08-.09-.12l-38.19-46.72c5.1-2.1,10.03-4.54,14.76-7.3l21.59,26.65,9.84,12.15,5.26,6.47,14.95,18.46,7.35,9.07,12.56,15.48,23.07,28.47Z"/>
        <path fill="#430e4c" stroke-width="0px" d="m52.7,221.24c-4.85,2.66-9.93,4.96-15.18,6.88l-4.32-5.29c5.33-1.82,10.48-4.04,15.38-6.67l4.13,5.08Z"/>
        <path fill="#430e4c" stroke-width="0px" d="m38.52,203.74c-5.09,2.5-10.46,4.51-16.04,5.98l-5.33-6.53c5.74-1.24,11.23-3.11,16.44-5.53l4.93,6.08Z"/>
        <path fill="#430e4c" stroke-width="0px" d="m23.35,185.03c-5.56,2.18-11.51,3.58-17.7,4.09l-5.27-6.43v-1.32c6.17-.02,12.1-1.03,17.66-2.88l5.3,6.54Z"/>
        <path fill="#430e4c" stroke-width="0px" d="m7.12,165.01c-2.19.37-4.45.56-6.74.58l-.02-7.93c.26,0,.52,0,.77-.02l5.98,7.37Z"/>
        <path fill="#ffe11d" d="m1.14,157.64c-.26.02-.52.02-.77.02v-.98l.77.97Z"/>
        <polygon fill="#f426ff" stroke-width="0px" points=".37 260.59 .37 285.44 53.26 350.49 73.33 350.49 .37 260.59"/>
        <path fill="#f426ff" stroke-width="0px" d="m8.65,124.36c0,2.37-1.02,4.52-2.64,6.03-1.49,1.4-3.46,2.25-5.64,2.25v-9.11l.02-7.46c4.53.01,8.26,3.75,8.26,8.28Z"/>
        <path fill="#ffe11d" d="m14.15,16.76c-.57-.08-1.14-.14-1.71-.21.26.02.52.05.78.09.3.03.62.08.93.12Z"/>
        <path fill="#ffe11d" d="m19.21,17.53c-1.12-.19-2.23-.38-3.37-.54.16.02.31.04.48.07.38.05.77.12,1.15.17.02.01.04.01.07.01.56.09,1.12.2,1.68.29Z"/>
        <path fill="#ffe11d" d="m33.38,21.02c-.35-.11-.69-.22-1.05-.33.09.02.18.04.27.08.26.09.52.17.78.25Z"/>
        <path fill="#ffe11d" d="m37.08,22.27c-.52-.18-1.05-.37-1.57-.54.17.04.34.11.51.16.36.12.72.25,1.06.38Z"/>
        <path fill="#ffe11d" d="m49.26,27.5c-.7-.35-1.41-.69-2.12-1.04.07.02.13.05.2.09.55.27,1.11.54,1.66.81.09.04.18.09.27.14Z"/>
        <path fill="#ffe11d" d="m50.72,28.26c-.49-.26-.98-.51-1.46-.76.35.16.67.34,1.01.51.15.08.3.15.46.25Z"/>
        <path fill="#ffe11d" d="m57.05,31.85c-1.29-.8-2.61-1.56-3.95-2.3.11.05.22.12.33.17.43.23.86.48,1.28.72.15.09.29.17.44.26.64.38,1.27.75,1.9,1.15Z"/>
        <path fill="#ffe11d" d="m60.04,33.74c-.73-.48-1.45-.94-2.19-1.4.1.05.2.11.29.17.64.4,1.27.8,1.9,1.23Z"/>
        <path fill="#ffe11d" d="m68.52,39.91c-1.23-.99-2.48-1.94-3.75-2.87.34.24.67.49,1.02.74.13.1.26.21.4.3.6.46,1.2.92,1.79,1.39.04.03.09.07.12.1.14.11.28.23.42.35Z"/>
        <path fill="#ffe11d" d="m64.47,36.81c-1.27-.92-2.55-1.82-3.86-2.69.15.1.31.19.47.3.75.5,1.5,1.02,2.23,1.54.39.28.77.55,1.16.85Z"/>
        <path fill="#ffe11d" d="m81.34,52.01c-.39-.42-.77-.85-1.16-1.27.22.22.42.44.63.67.17.2.36.39.53.6Z"/>
        <path fill="#ffe11d" d="m109.45,121.79c0-.05,0-.11-.01-.16v-.22c0,.12.01.25.01.38Z"/>
        <path fill="#f426ff" stroke-width="0px" d="m32.62,125.43c0,9.59-4.21,18.21-10.85,24.11-3.9,3.45-8.62,5.98-13.86,7.22-2.18.53-4.43.84-6.77.89l-.77-.97v.98h-.08v-15.87h.08c4.38,0,8.36-1.72,11.3-4.51,3.13-2.98,5.08-7.19,5.08-11.85,0-9.06-7.33-16.39-16.37-16.39h-.08v-15.88h.08c17.81,0,32.25,14.44,32.25,32.27Z"/>
        <path fill="#f426ff" stroke-width="0px" d="m1.14,157.64c-.26.02-.52.02-.77.02v-.98l.77.97Z"/>
        <path fill="#f426ff" stroke-width="0px" d="m56.24,125.43c0,16.92-7.53,32.1-19.44,42.37-3.88,3.35-8.24,6.17-12.94,8.36-1.89.87-3.84,1.66-5.82,2.32-5.56,1.85-11.49,2.87-17.66,2.88v-15.78c2.29-.02,4.55-.21,6.74-.58,2.14-.37,4.24-.9,6.25-1.61,4.98-1.71,9.53-4.38,13.41-7.77v-.02c8.38-7.37,13.68-18.16,13.68-30.19,0-22.21-17.99-40.2-40.18-40.2v-15.76c30.9,0,55.96,25.05,55.96,55.96Z"/>
        <rect fill="#f426ff" stroke-width="0px" x=".29" y="165.59" width=".1" height="15.78"/>
        <path fill="#f426ff" stroke-width="0px" d="m79.63,125.65c0,24.16-10.8,45.8-27.85,60.34-3.88,3.32-8.09,6.29-12.59,8.8-1.82,1.05-3.69,2-5.61,2.87-5.21,2.42-10.7,4.29-16.44,5.53-2.05.44-4.11.81-6.19,1.08-3.46.47-6.99.73-10.57.73h-.1v-15.65c1.8,0,3.59-.08,5.37-.23,6.19-.52,12.14-1.92,17.7-4.09,1.95-.74,3.87-1.6,5.72-2.55,4.61-2.34,8.9-5.22,12.78-8.56,13.55-11.68,22.14-28.98,22.14-48.27,0-35.2-28.53-63.71-63.71-63.71v-15.65c43.82,0,79.34,35.54,79.34,79.36Z"/>
        <path fill="#430e4c" stroke-width="0px" d="m187.31,336.1s-8.63-3.47-14.13-2.63l-9.62-11.68s15.88-1.84,23.64,1.16l.11,13.15Z"/>
        <path fill="#f426ff" stroke-width="0px" d="m187.2,350.5h-19.94l-23.96-29.13-10.45-12.71-6.26-7.6h0s-15.67-19.05-15.67-19.05h-.01s-6.6-8.05-6.6-8.05l-12.46-15.14-23.46-28.53c4.14-2.68,8.1-5.61,11.88-8.78.16-.12.3-.25.45-.37l.65.79c.23.29.47.57.69.85,1.08,1.29,2.13,2.59,3.2,3.88.01.02.03.03.04.05l.2.25,2.67,3.23,1.29,1.57s0,.01.01.01l.62.75,4.67,5.68,13.62,16.54,8.02,9.76h.01s14.27,17.34,14.27,17.34l5.53,6.72,9.91,12.03,4.49,5.46,8.75,10.62,4.2,5.12,9.62,11.68,14.02,17.03Z"/>
        <path fill="#430e4c" stroke-width="0px" d="m187.36,242.29v13.03c-9.33-4.49-19.85-1.81-29.23,1.21-5.74,1.87-11.56,4.02-17.57,4.72-6.09.7-12.49,0-18.4-1.54-4.74-1.25-9.19-3.3-13.78-4.97l-13.62-16.54c1.08.03,2.16.12,3.22.24,9.39,1.06,17.64,5.13,17.64,5.13,2.39,1.11,4.69,1.99,6.89,2.67,3.05.94,5.92,1.51,8.66,1.77.13.02.25.03.38.03,5.56.5,10.53-.24,15.23-1.44l.78-.2c2.31-.62,4.55-1.34,6.78-2.08,4.72-1.56,9.34-3.17,14.24-3.95,2.37-.4,4.81-.59,7.34-.49,3.32.13,6.81.76,10.58,2.1.03.01.05.01.08.02.25.1.5.19.76.28.01,0,.01.01.02.01Z"/>
        <path fill="#430e4c" stroke-width="0px" d="m187.36,262.87v13.02c-9.33-4.48-19.85-1.81-29.23,1.22-5.74,1.86-11.56,4.02-17.57,4.71-3.25.38-6.59.35-9.88.02l-14.27-17.33c2.11.94,4.15,1.7,6.1,2.31,3.05.94,5.92,1.51,8.66,1.77.13.02.25.03.38.03,5.56.5,10.53-.24,15.23-1.44l.78-.2c2.31-.63,4.55-1.34,6.78-2.08,4.72-1.56,9.34-3.18,14.24-3.96,2.37-.39,4.81-.58,7.34-.48,3.32.13,6.81.75,10.58,2.1.03,0,.05,0,.08.02.25.1.5.18.76.28.01,0,.01.01.02.01Z"/>
        <path fill="#ffe11d" d="m89,291.13c-.98-.89-1.89-2.17-2.67-3.26l2.67,3.26Z"/>
        <path fill="#430e4c" stroke-width="0px" d="m187.36,282.67v13.02c-9.33-4.49-19.85-1.81-29.23,1.22-3.95,1.28-7.94,2.71-12.01,3.68l-9.91-12.03c3.74-.1,7.23-.73,10.57-1.59l.78-.19c2.31-.63,4.55-1.34,6.78-2.08,4.72-1.56,9.34-3.18,14.24-3.96,2.37-.39,4.81-.58,7.34-.49,3.32.13,6.81.76,10.58,2.11.03.01.05.01.08.02.25.1.5.18.76.28.01,0,.01.01.02.01Z"/>
        <path fill="#430e4c" stroke-width="0px" d="m187.36,302.83v13.02c-8.93-4.3-18.94-2.03-28,.82l-8.75-10.62c1.25-.38,2.49-.78,3.73-1.2,4.72-1.56,9.34-3.17,14.24-3.95,2.37-.39,4.81-.59,7.34-.49,3.32.13,6.81.76,10.58,2.1.03.01.05.01.08.02.25.1.5.19.76.28.01,0,.01.02.02.02Z"/>
        <path fill="#ffe11d" d="m79.96,28.76c.38.31.76.63,1.13.95-.49-.42-.99-.83-1.47-1.24.12.1.23.18.35.28Z"/>
        <path fill="#ffe11d" d="m105.97,58.32c.03.05.08.12.11.17-.03-.07-.08-.12-.12-.18.01,0,.01.01.01.01Z"/>
        <path fill="#ffe11d" d="m118.61,167.53l-.87.83c.16-.43.33-.87.47-1.3l.4.47Z"/>
        <path fill="#ffe11d" d="m109.45,128.93c0,.07-.01.13-.01.2-.01.17-.02.34-.02.5-.02.47-.04.93-.07,1.4-.03.68-.08,1.37-.12,2.05,0,.06-.01.12-.01.18s-.01.12-.02.18c-.03.51-.08,1.02-.13,1.53-.02.3-.04.62-.08.92,0,.04-.01.1-.01.14-.05.49-.11.98-.16,1.46-.01.11-.02.21-.03.31-.01.14-.03.28-.05.42-.03.4-.09.8-.14,1.19-.04.4-.11.79-.16,1.18-.11.82-.24,1.65-.38,2.46,0,.04,0,.08-.01.12-.11.68-.23,1.37-.36,2.04,0,.02-.01.04-.01.07l-.03-.03c.01-.08.03-.15.04-.23.13-.67.25-1.36.36-2.04.01-.04.01-.08.01-.12.14-.81.27-1.64.38-2.46.05-.39.12-.78.16-1.18.05-.39.11-.79.14-1.19.02-.14.04-.28.05-.42.01-.11.02-.21.03-.31.05-.49.11-.98.16-1.46,0-.04.01-.1.01-.14.03-.3.05-.62.08-.92.05-.51.1-1.02.13-1.53.01-.07.02-.12.02-.18s.01-.12.01-.18c.04-.68.09-1.37.12-2.05.02-.47.04-.93.07-1.4,0-.16.01-.33.02-.5h.01Z"/>
        <polygon fill="#ffe11d" points="148.94 .27 148.93 .28 129.45 .28 129.46 .27 148.94 .27"/>
        <path fill="#430e4c" stroke-width="0px" d="m147.75,226.98s-.02,0-.03.01h-.03s0,.01.02.01c0,0,0,0-.01,0,.02,0,.04-.02.05-.03Z"/>
        <path fill="#f426ff" stroke-width="0px" d="m102.89,125.62c0,3.87-.23,7.67-.65,11.43-.05.61-.13,1.22-.21,1.82-3.35,26.01-16.44,48.96-35.49,65.06-3.88,3.32-8.04,6.34-12.41,9.03-1.8,1.14-3.67,2.21-5.56,3.2-4.9,2.63-10.04,4.86-15.37,6.68h-.02c-1.88.64-3.8,1.22-5.74,1.74-5.81,1.61-11.84,2.7-18.03,3.24h-.02c-2.33.21-4.67.33-7.06.38-.64,0-1.29.02-1.95.02h-.09v-15.65h.09c5.5,0,10.87-.52,16.09-1.51,2.03-.38,4.03-.83,6.01-1.34,5.58-1.47,10.94-3.48,16.04-5.98,1.9-.94,3.75-1.94,5.57-2.98,4.43-2.6,8.64-5.58,12.53-8.9,18.74-15.94,30.62-39.71,30.62-66.24C87.24,77.59,48.32,38.67.29,38.67v-15.65c56.65,0,102.6,45.93,102.6,102.6Z"/>
        <path fill="#ffe11d" d="m68.99,20.64l-.03.03c-3.86-2.57-7.87-4.91-12.02-7.03l.02-.02c.11.05.22.11.33.16.2.1.39.19.59.3.2.1.38.2.57.29.43.23.87.46,1.29.69.1.05.18.11.27.15.01,0,.02.01.03.01.7.39,1.4.78,2.09,1.17.57.33,1.15.66,1.71,1,.42.25.83.5,1.25.76.62.38,1.24.75,1.84,1.14.61.38,1.21.77,1.82,1.17.08.05.15.11.24.16Z"/>
        <path fill="#ffe11d" d="m49.39,10.07c.25.1.49.21.74.31l-.03.03c-4.51-1.97-9.16-3.69-13.93-5.13h.01s.01-.01.01-.01c.62.17,1.23.37,1.84.56.17.05.35.11.52.17.6.2,1.19.39,1.79.59.29.1.59.2.88.3.01,0,.01.01.02.01.48.16.94.33,1.41.5.03.01.07.02.1.03.51.17,1.01.37,1.51.55.09.03.18.07.27.11.42.15.85.33,1.27.49.42.16.86.34,1.28.51.52.21,1.03.41,1.54.63.15.07.29.13.44.2.11.04.23.1.34.14Z"/>
        <polygon fill="#ffe11d" points="61.05 .27 61.04 .28 41.57 .28 41.58 .27 61.05 .27"/>
        <path fill="#430e4c" stroke-width="0px" d="m61.04.28l-10.92,10.1c-.25-.11-.49-.22-.74-.31-.11-.04-.23-.1-.34-.14-.15-.07-.29-.13-.44-.2-.51-.22-1.02-.42-1.54-.63-.42-.17-.86-.35-1.28-.51-.42-.16-.85-.34-1.27-.49-.09-.04-.18-.08-.27-.11-.5-.18-1-.38-1.51-.55-.03-.01-.07-.02-.1-.03-.47-.17-.93-.34-1.41-.5-.01,0-.01-.01-.02-.01-.29-.11-.59-.21-.88-.3-.6-.19-1.19-.39-1.79-.59-.17-.06-.35-.12-.52-.17-.62-.2-1.23-.39-1.84-.56L41.57.28h19.47Z"/>
        <path fill="#430e4c" stroke-width="0px" d="m90.83.28l-13.74,12.73-8.11,7.63c-.09-.05-.16-.11-.24-.16-.61-.4-1.21-.79-1.82-1.17-.61-.39-1.23-.76-1.84-1.14-.41-.26-.82-.51-1.25-.76-.56-.34-1.14-.67-1.71-1-.69-.39-1.39-.78-2.09-1.17-.01,0-.02-.01-.03-.01-.09-.04-.17-.1-.27-.15-.42-.24-.86-.47-1.29-.69-.2-.1-.38-.2-.57-.29-.19-.11-.39-.21-.59-.3-.11-.05-.22-.11-.33-.16L71.36.28h19.47Z"/>
        <path fill="#430e4c" stroke-width="0px" d="m105.95,41.79l12.66,14.34-8.86,8.55c-.46-.81-.91-1.63-1.39-2.43-.14-.25-.28-.5-.44-.75-.14-.26-.29-.51-.46-.76-.15-.27-.31-.54-.49-.8-.14-.25-.29-.5-.44-.74-.15-.25-.3-.49-.46-.73-.03-.05-.08-.12-.11-.17,0,0,0-.01-.01-.01-.34-.54-.67-1.07-1.03-1.61-.04-.05-.08-.12-.12-.17-.25-.39-.51-.78-.78-1.17-.03-.05-.07-.1-.1-.15-.36-.54-.74-1.08-1.12-1.63-.17-.26-.36-.52-.54-.77-.31-.46-.64-.9-.98-1.34-.03-.04-.07-.09-.1-.13-.04-.07-.1-.14-.15-.21-.18-.27-.38-.54-.59-.8-.07-.1-.14-.19-.22-.28-.08-.1-.15-.21-.22-.3-.28-.38-.57-.75-.87-1.13-.07-.08-.12-.15-.18-.23-.33-.43-.66-.86-1.01-1.28-.16-.23-.35-.44-.53-.66-.61-.76-1.24-1.52-1.88-2.27-.26-.33-.53-.64-.81-.94-.36-.42-.72-.83-1.09-1.25-.68-.78-1.39-1.55-2.1-2.31-.15-.16-.3-.31-.46-.48-.34-.36-.68-.73-1.03-1.08-.03-.03-.07-.08-.11-.11-.13-.14-.26-.27-.39-.4-.76-.78-1.53-1.55-2.32-2.31t-.02-.02h-.01c-.04-.07-.09-.11-.14-.15-.78-.75-1.56-1.48-2.35-2.21h-.01c-.72-.66-1.44-1.32-2.18-1.95-.04-.04-.08-.08-.12-.11-.12-.12-.25-.23-.38-.34-.31-.27-.63-.54-.94-.8-.37-.33-.75-.64-1.13-.95-.12-.1-.23-.18-.35-.28-.19-.15-.38-.31-.57-.47-.03-.02-.07-.05-.1-.08-.05-.04-.12-.1-.17-.14-.6-.49-1.19-.97-1.8-1.43-.89-.69-1.79-1.38-2.7-2.05L100.21.28h19.47l-13.74,12.73-13.38,12.59,13.38,16.2Z"/>
        <path fill="#430e4c" stroke-width="0px" d="m133.28,98.32l13.59,15.65-13.59,12.69-8.26,7.8c.23-3.02.35-6.08.35-9.17,0-19.59-4.5-38.14-12.53-54.65l-.07-.13.07-.07,14.21-13.46-25.72-30.64L129.45.28h19.47l-15.65,14.5-13.38,12.59,13.38,16.2,12.66,14.34-12.66,12.23-13.38,12.34,13.38,15.85Z"/>
        <path fill="#430e4c" stroke-width="0px" d="m187.36,18.49l-13.38,12.6,13.38,16.2v26.57l-13.38,12.34,13.38,15.85v28.33l-13.09,12.36,13.09,15.59v26.9l-13.18,12.49,13.18,15.8v22.42c-9.33-4.49-19.85-1.81-29.23,1.22-5.74,1.86-11.56,4.02-17.57,4.71-6.09.71-12.49,0-18.4-1.54-6.1-1.6-11.72-4.53-17.77-6.3-3.69-1.08-7.04-1.38-10.7-1.46h-.19s-3.41-.05-3.41-.05l-.62-.75s-.01-.01-.01-.01l-1.29-1.57-2.67-3.23-.2-.25s-.03-.03-.04-.05c-1.07-1.29-2.12-2.59-3.2-3.88-.22-.28-.46-.56-.69-.85l-.65-.79c.7-.59,1.4-1.19,2.09-1.81.35-.29.68-.59,1.03-.91.03-.03.08-.06.11-.1.7-.61,1.39-1.25,2.07-1.91.1-.08.2-.18.29-.27l2.63,3.04c2.98-.49,6.07-.46,9.04-.12l-6.72-7.87c.61-.66,1.23-1.32,1.84-2,.04-.04.09-.09.12-.14.1-.09.18-.2.28-.3.09-.11.19-.21.27-.31.23-.26.45-.51.67-.77.05-.04.08-.07.1-.11.46-.51.9-1.03,1.34-1.55.16-.19.31-.37.47-.57.47-.55.92-1.1,1.37-1.66.11-.13.22-.27.32-.41.63-.79,1.26-1.58,1.87-2.38.02-.04.04-.07.07-.1l5.97,7.13,16.56,18.85c3.05.94,5.92,1.5,8.66,1.76,0-.05-27.42-32.99-27.42-32.99,2.51-3.71,4.84-7.54,6.97-11.53.06-.12.13-.24.18-.36t.01-.01s.01-.01.01-.02l16.35-15.41-6.86-8.05v-.02c.19-.62.36-1.24.53-1.87.19-.69.37-1.37.54-2.05.02-.05.03-.08.04-.11.33-1.33.66-2.68.95-4.03.01-.03.01-.06.02-.08.22-1.03.44-2.08.63-3.13.14-.69.27-1.38.38-2.08.06-.34.12-.68.17-1.01.12-.71.23-1.41.34-2.13.01-.05.01-.11.02-.16l9.25,11.02,12.66,14.7-12.66,12.19-13.18,12.5,13.18,15.79,14.41,17.21h.02s0,0-.01,0c.02,0,.04-.02.05-.03,2.25-.61,4.43-1.32,6.59-2.03.09-.03.19-.07.29-.1l-25.89-30.31,25.94-24.44-25.94-30.46,26.7-25.02-26.7-31.52,25.72-24.34-25.72-30.64L158.66.4s19.6-.12,19.6-.12l-17.57,16.29-13.38,12.58,13.38,16.2,12.66,14.34-12.66,12.23-13.38,12.34,13.38,15.85,13.58,15.65-13.58,12.68-13.09,12.36,13.09,15.59,12.66,14.71-12.66,12.19-13.18,12.5,13.18,15.79,8.23,9.36c2.25-.36,4.58-.53,7-.44l-20.51-24.02,25.94-24.44-25.94-30.47,26.7-25.01-26.7-31.52,25.72-24.35-25.72-30.64L187.36.46v18.03Z"/>
        <path fill="#f426ff" stroke-width="0px" d="m125.37,125.28c0,3.09-.12,6.15-.35,9.17h0c0,.08-.01.14-.01.21-.06.77-.12,1.52-.19,2.29-.07.75-.14,1.49-.22,2.23-.09.73-.18,1.47-.26,2.2-.1.74-.2,1.46-.31,2.2h0c-.01.06-.01.12-.02.17-.11.72-.22,1.42-.34,2.13-.05.33-.11.67-.17,1.01-.11.7-.24,1.39-.38,2.08-.19,1.05-.41,2.1-.63,3.13-.01.02-.01.05-.02.08-.29,1.35-.62,2.7-.95,4.03-.01.03-.02.06-.04.11-.17.68-.35,1.36-.54,2.05-.17.63-.34,1.25-.53,1.87v.02c-.01.05-.03.09-.04.13-.23.77-.46,1.53-.7,2.29h0c-.04.18-.09.33-.14.48-.03.08-.05.15-.07.23-.25.78-.5,1.54-.77,2.31-.15.46-.32.92-.48,1.37-.03.13-.08.25-.13.38-.03.09-.07.18-.1.27-.03.11-.07.22-.12.33,0,.02-.01.05-.02.07-.01.03-.02.06-.03.08-.02.06-.04.1-.06.16h0s-.01.01-.01.01c-.01.06-.03.11-.05.17-.23.59-.44,1.19-.67,1.77-.57,1.48-1.16,2.94-1.78,4.39-.17.41-.36.83-.54,1.24-.36.8-.73,1.61-1.1,2.41l-.03.06c-.41.89-.85,1.77-1.28,2.65-.06.12-.12.24-.17.35-.02.04-.05.07-.07.12-.34.69-.69,1.38-1.06,2.07-.02.03-.04.07-.07.12,0,.01-.01.01-.01.02s0,.01-.01.01c-.05.12-.12.24-.18.36-2.13,3.99-4.46,7.82-6.97,11.53-.01,0-.01.01-.01.01-.03.04-.05.07-.07.1-.42.63-.86,1.25-1.3,1.87-.09.11-.16.22-.25.34-.19.28-.39.56-.6.84-.01.02-.03.04-.04.06-.49.68-.99,1.36-1.5,2.03-.03.03-.05.06-.07.1-.61.8-1.24,1.59-1.87,2.38-.1.14-.21.28-.32.41-.45.56-.9,1.11-1.37,1.66-.16.2-.31.38-.47.57-.44.52-.88,1.04-1.34,1.55-.02.04-.05.07-.1.11-.22.26-.44.51-.67.77-.08.1-.18.2-.27.31-.1.1-.18.21-.28.3-.03.05-.08.1-.12.14-.61.68-1.23,1.34-1.84,2-.07.06-.12.12-.18.18-.74.8-1.49,1.56-2.25,2.32-.07.08-.14.14-.21.21-.76.76-1.53,1.51-2.31,2.24-.09.09-.19.19-.29.27-.68.66-1.37,1.3-2.07,1.91-.03.04-.08.07-.11.1-.35.32-.68.62-1.03.91-.69.62-1.39,1.22-2.09,1.81-.15.12-.29.25-.45.37-3.78,3.17-7.74,6.1-11.88,8.78-1.82,1.21-3.69,2.36-5.57,3.44-4.73,2.75-9.66,5.19-14.76,7.3-1.82.76-3.67,1.47-5.54,2.15-5.41,1.94-10.99,3.53-16.71,4.72-2.1.44-4.23.84-6.37,1.16-6.21.98-12.58,1.49-19.05,1.5h-.39v-15.87h.39c.59,0,1.18-.01,1.78-.02.59-.01,1.18-.02,1.77-.05.59-.01,1.18-.04,1.76-.07.59-.02,1.18-.05,1.76-.09h.01c2.3-.17,4.54-.38,6.8-.69h.01c2.26-.29,4.5-.65,6.71-1.07.74-.14,1.47-.29,2.2-.45,1.47-.31,2.92-.66,4.36-1.03,1.44-.37,2.87-.78,4.29-1.21,1.92-.57,3.81-1.2,5.67-1.89h.01c1.31-.48,2.61-.98,3.9-1.51,1.29-.52,2.57-1.07,3.84-1.65,2.53-1.15,5.01-2.39,7.43-3.72h0c1.89-1.04,3.73-2.14,5.55-3.27h0c2.17-1.37,4.29-2.81,6.35-4.32,1.03-.76,2.05-1.53,3.06-2.32,1-.79,1.99-1.6,2.97-2.43.86-.74,1.71-1.47,2.55-2.23.11-.1.22-.19.32-.29.75-.67,1.47-1.35,2.2-2.05.11-.1.22-.2.33-.32.78-.75,1.55-1.52,2.3-2.29.16-.14.3-.29.42-.43.68-.69,1.34-1.4,1.99-2.11.04-.05.09-.09.13-.14.5-.54.99-1.09,1.46-1.64.45-.51.89-1.02,1.33-1.53.57-.67,1.13-1.36,1.68-2.04.55-.68,1.09-1.38,1.62-2.07.55-.7,1.07-1.41,1.59-2.11.02-.04.04-.07.06-.09.5-.68.99-1.38,1.47-2.07.13-.19.25-.37.38-.55.11-.18.25-.36.36-.55.25-.35.5-.72.74-1.09.49-.74.96-1.49,1.42-2.23.24-.38.47-.75.7-1.13.23-.38.45-.76.68-1.14.01-.01.01-.02.02-.03.39-.65.76-1.32,1.14-1.98.02-.04.05-.08.07-.13.03-.04.05-.07.07-.12.15-.28.3-.55.45-.83.29-.51.57-1.03.84-1.55.5-.91.96-1.83,1.41-2.77.24-.45.45-.92.67-1.38.23-.47.45-.95.65-1.41.29-.63.58-1.26.85-1.9.26-.59.51-1.18.75-1.78.05-.13.1-.26.16-.39.23-.54.44-1.08.65-1.64.26-.66.51-1.32.76-1.99,0-.02.01-.04.02-.08.23-.63.45-1.25.67-1.88.22-.62.42-1.24.62-1.86.01-.04.02-.07.04-.12.01-.04.02-.07.04-.12.19-.57.38-1.14.54-1.73.2-.64.4-1.29.57-1.94.24-.86.48-1.72.71-2.6.13-.52.26-1.04.39-1.58.13-.52.25-1.04.37-1.57.23-1.04.45-2.09.65-3.14.01-.01.01-.02.01-.03.04-.22.08-.45.13-.67.01-.04.01-.08.02-.13.01-.05.02-.09.03-.15h0s.01-.05.01-.07c.13-.68.25-1.36.36-2.04.01-.04.01-.08.01-.12.14-.81.27-1.64.38-2.46.05-.39.12-.78.16-1.18.06-.39.11-.8.14-1.2.03-.14.05-.28.06-.42.01-.11.02-.21.03-.31.06-.49.11-.98.16-1.47,0-.04.01-.1.01-.14.04-.3.06-.62.08-.92.05-.51.1-1.02.13-1.53.01-.06.02-.12.02-.18,0-.07.01-.12.01-.19.05-.68.09-1.36.12-2.05.02-.46.05-.93.07-1.39,0-.17.01-.33.02-.5,0-.07,0-.13,0-.2h0c0-.15,0-.28.01-.43,0-.21.01-.43.01-.63.02-.86.03-1.73.03-2.59s-.01-1.7-.03-2.55c0-.23-.01-.44-.01-.67,0-.09-.01-.19-.01-.27,0-.13,0-.26,0-.38,0-.06,0-.1-.01-.16,0-.15,0-.3-.01-.44-.01-.15-.01-.29-.02-.44,0-.08-.02-.16-.02-.22,0-.04,0-.09-.01-.13-.02-.59-.05-1.17-.09-1.75-.01-.26-.04-.53-.05-.79,0-.06-.01-.14-.02-.2-.03-.55-.07-1.08-.13-1.62h0c-.01-.14-.02-.27-.03-.4,0-.05-.01-.1-.02-.15-.07-.8-.15-1.62-.25-2.42.01-.01,0-.02,0-.04-.01-.13-.03-.25-.05-.38-.05-.44-.09-.86-.16-1.29,0-.1-.02-.2-.03-.3-.06-.4-.11-.78-.16-1.17-.02-.13-.05-.26-.06-.39-.05-.31-.1-.63-.15-.94,0-.05-.01-.11-.02-.16-.14-.91-.3-1.81-.47-2.71-.1-.55-.2-1.1-.31-1.64-.02-.07-.03-.14-.05-.21-.11-.6-.24-1.21-.39-1.82-.11-.61-.26-1.2-.41-1.8-.14-.62-.29-1.22-.44-1.83-.16-.64-.34-1.27-.52-1.91-.1-.39-.21-.78-.33-1.17-.08-.29-.16-.58-.25-.87-.01-.04-.02-.07-.03-.12-.02-.04-.03-.09-.04-.14-.11-.35-.22-.7-.33-1.06-.52-1.69-1.09-3.36-1.7-5.02-.01-.02-.02-.04-.02-.06-.24-.65-.49-1.31-.74-1.96-.24-.64-.49-1.26-.76-1.89-.01-.02-.01-.04-.02-.06-.25-.64-.52-1.27-.8-1.89-.52-1.22-1.08-2.41-1.64-3.6-.22-.46-.43-.92-.66-1.36-.15-.32-.32-.65-.49-.97-.19-.41-.4-.81-.61-1.2-.9-1.74-1.85-3.46-2.87-5.15-1.16-1.96-2.37-3.88-3.66-5.75-.61-.9-1.23-1.79-1.88-2.68-.63-.88-1.29-1.76-1.96-2.63-.6-.79-1.23-1.57-1.86-2.34-.02-.02-.03-.04-.05-.06-.03-.04-.05-.08-.09-.11-.02-.03-.04-.07-.08-.1-.11-.14-.23-.28-.34-.41-.48-.59-.96-1.17-1.47-1.75-.08-.09-.16-.18-.24-.28-.43-.49-.86-.97-1.3-1.46-.09-.11-.18-.21-.27-.3-.09-.1-.18-.2-.26-.3-.21-.23-.42-.45-.63-.67-.58-.63-1.17-1.25-1.76-1.86-.08-.07-.15-.14-.22-.21-.72-.75-1.47-1.48-2.22-2.2-.03-.04-.06-.07-.1-.09-.06-.08-.13-.14-.2-.21-.72-.68-1.44-1.36-2.18-2.02-.7-.63-1.39-1.25-2.09-1.85t-.03-.01c-.22-.2-.45-.4-.68-.58-.06-.06-.12-.11-.18-.16-.38-.33-.77-.66-1.15-.96-.08-.06-.17-.13-.24-.19-.2-.17-.4-.34-.61-.49-.14-.12-.28-.24-.42-.35-.03-.03-.08-.06-.12-.1-.59-.46-1.19-.93-1.79-1.38-.14-.1-.27-.21-.4-.31-.35-.25-.68-.5-1.02-.74-.1-.08-.21-.15-.3-.22-.39-.3-.77-.57-1.16-.85-.74-.52-1.49-1.04-2.24-1.54-.08-.06-.15-.1-.23-.15-.08-.05-.15-.1-.23-.15-.09-.07-.18-.12-.26-.18-.1-.06-.21-.14-.31-.2-.36-.24-.73-.48-1.09-.71-.26-.18-.53-.35-.8-.52-.1-.06-.2-.12-.3-.17-.05-.04-.09-.07-.15-.1-.12-.07-.24-.15-.36-.21-.09-.07-.19-.12-.29-.18-.63-.4-1.26-.77-1.9-1.15-.15-.08-.29-.17-.44-.26-.42-.24-.85-.49-1.28-.71-.11-.06-.22-.12-.33-.18-.07-.05-.15-.08-.22-.13-.26-.15-.52-.29-.78-.43-.46-.25-.91-.5-1.38-.73-.15-.09-.3-.17-.46-.25-.33-.17-.66-.34-1-.51-.09-.05-.19-.09-.28-.14-.55-.27-1.1-.54-1.65-.81-.07-.03-.13-.06-.2-.09-.43-.21-.88-.42-1.31-.61-.78-.36-1.56-.72-2.35-1.06-.3-.13-.59-.26-.89-.38-.05-.02-.09-.03-.13-.05-.75-.31-1.5-.63-2.26-.92-.52-.21-1.03-.4-1.55-.6-.52-.19-1.04-.39-1.56-.57-.35-.13-.71-.26-1.06-.38-.18-.06-.34-.12-.51-.16-.4-.16-.82-.29-1.22-.42-.17-.05-.34-.1-.52-.16-.12-.04-.25-.09-.37-.12t-.02-.01c-.13-.04-.26-.08-.39-.12s-.26-.08-.39-.13c-.08-.03-.18-.05-.27-.07-.48-.17-.96-.31-1.45-.45-.11-.03-.23-.06-.35-.1-.69-.2-1.4-.4-2.1-.58-.71-.2-1.43-.38-2.15-.55-.01,0-.03-.02-.04-.02-.69-.17-1.36-.32-2.04-.47-.51-.12-1.02-.23-1.53-.34-.04-.01-.08-.01-.12-.02-.48-.1-.96-.21-1.44-.29-.08-.01-.15-.04-.23-.05-.07-.01-.16-.03-.24-.04-.15-.03-.3-.06-.45-.09-.14-.03-.3-.05-.46-.08h-.02c-.16-.04-.34-.06-.5-.09-.56-.1-1.11-.21-1.68-.29-.02,0-.04,0-.06-.01h-.03c-.11-.02-.23-.04-.34-.06-.26-.04-.52-.08-.78-.12-.09-.01-.17-.02-.24-.03-.08,0-.16-.02-.24-.03-.39-.06-.79-.11-1.18-.16-.17-.03-.34-.05-.51-.07-.32-.04-.63-.09-.93-.12-.26-.03-.52-.06-.78-.09-.26-.03-.52-.05-.78-.08-.38-.05-.77-.09-1.15-.12-.5-.05-.99-.09-1.49-.13-.45-.03-.91-.07-1.37-.1-.59-.04-1.18-.08-1.77-.11-.32-.02-.63-.03-.94-.04-.39-.02-.77-.03-1.15-.04-1.17-.05-2.34-.07-3.51-.07V0c.87,0,1.73.01,2.59.03.61,0,1.21.03,1.81.06.45.01.88.03,1.33.05.67.03,1.33.06,2,.11.17.01.32.02.48.03.68.04,1.37.09,2.05.15h.03c1.69.14,3.37.32,5.05.52.79.1,1.6.21,2.39.33.03,0,.07,0,.11,0,1.53.22,3.03.46,4.55.74.14.02.28.05.42.07.82.15,1.64.32,2.45.49.76.15,1.52.31,2.28.49.58.13,1.14.26,1.71.4.46.11.91.22,1.36.33.06.02.12.04.18.05.59.14,1.16.29,1.74.45.72.2,1.44.39,2.16.6.31.1.62.18.94.28.09.02.17.06.26.09h.01c.62.17,1.23.37,1.84.56.18.06.35.11.52.18.6.19,1.2.39,1.79.58.29.1.59.2.88.3.01,0,.01.02.02.02.48.16.95.32,1.41.49.03.02.07.03.1.04.6.21,1.18.43,1.78.66.42.15.84.32,1.27.49.42.16.85.33,1.27.51.26.1.52.21.78.31.08.03.16.06.23.1.33.13.66.27.98.41.11.04.23.1.34.14.24.1.48.21.73.32.31.13.61.27.91.4.19.08.37.17.56.25.5.23,1.01.46,1.51.69.14.07.27.13.41.19.73.35,1.46.71,2.19,1.07.01,0,.02.01.03.01.41.2.82.42,1.22.63.11.05.22.11.33.16.19.1.39.19.58.3.63.33,1.25.65,1.87.99.1.05.18.11.27.15,0,0,.02.01.03.01.71.39,1.4.78,2.09,1.17.58.33,1.15.66,1.72,1,.42.25.83.5,1.24.76.62.38,1.24.75,1.85,1.14.61.38,1.21.77,1.82,1.17.07.05.15.11.24.16.05.03.12.09.18.13.46.29.91.6,1.37.91.59.4,1.19.82,1.78,1.23.65.46,1.3.93,1.95,1.41.91.67,1.81,1.35,2.7,2.05.6.46,1.2.94,1.8,1.43.05.04.12.09.17.14.03.02.07.05.1.07.19.16.38.32.57.47.12.1.23.18.35.28.38.32.76.63,1.13.96.31.26.63.53.94.8.13.11.26.22.38.33.04.04.08.07.12.11.74.63,1.46,1.29,2.18,1.94h.01c.79.74,1.57,1.48,2.35,2.23.06.04.1.08.14.14h.01s.01.02.03.03c.79.76,1.56,1.53,2.32,2.31.13.13.26.26.39.4.04.03.07.08.1.11.35.36.7.73,1.03,1.08.16.17.31.32.46.48.72.76,1.42,1.53,2.1,2.31.37.41.74.82,1.1,1.25.28.3.55.61.81.94.64.75,1.27,1.51,1.88,2.27.18.21.37.43.53.66.35.42.68.84,1.01,1.28.06.07.12.15.18.22.29.38.59.75.87,1.13.06.1.14.21.22.31.07.08.15.18.21.28.21.26.4.53.59.8.05.06.11.14.15.21.03.04.06.08.1.13.33.44.66.88.97,1.34.19.25.37.51.54.77.38.54.76,1.08,1.12,1.63.03.05.07.09.1.15.27.39.53.78.78,1.17.04.05.08.12.12.17.36.53.69,1.06,1.03,1.61.01,0,.01.01.01.01.03.05.08.12.11.17.15.24.3.48.45.73.16.24.31.49.45.73.17.26.33.54.49.81.16.25.31.5.45.76.15.25.29.49.45.74.47.81.93,1.62,1.38,2.43.03.05.06.1.09.15.51.93,1,1.86,1.49,2.79.49.95.97,1.91,1.44,2.86.02.05.04.09.06.13,8.04,16.52,12.54,35.07,12.54,54.66Z"/>
        <path fill="#ffe11d" d="m44.52,8.11c-.6-.23-1.18-.44-1.78-.66.51.17,1.01.37,1.51.55.09.03.18.07.27.11Z"/>
        <path fill="#ffe11d" d="m49.05,9.93c-.65-.28-1.31-.55-1.98-.82.52.21,1.03.41,1.54.63.15.07.29.13.44.2Z"/>
        <path fill="#ffe11d" d="m53.51,11.92c-.64-.29-1.28-.6-1.92-.89.51.23,1.01.46,1.52.69.13.06.27.13.4.19Z"/>
        <path fill="#ffe11d" d="m59.73,15.08c-.62-.34-1.24-.66-1.87-.99.2.1.38.2.57.29.43.23.87.46,1.29.69Z"/>
        <path fill="#430e4c" stroke-width="0px" d="m147.75,226.98s-.02,0-.03.01h-.03s0,.01.02.01c0,0,0,0-.01,0,.02,0,.04-.02.05-.03Z"/>
      </g>
      <path fill="#430e4c" stroke-width="0px" d="m1094.25,46c0,2.22,0,3.66,0,5.1,0,12.96.05,25.92-.05,38.87-.01,1.82-.44,3.76-1.17,5.43-1.78,4.09-1.48,6.75,1.88,9.92,5.19,4.9,9.56,10.39,12.59,16.88,7.74,16.64,8.06,33.42-.38,49.75-10.46,20.24-27.63,30.23-50.32,30.78-6.31.15-12.63.02-19.64.02,7.07-19.5,13.96-38.51,20.86-57.53-20.09-20.05-25.93-43.18-13.28-68.86,9.69-19.68,26.85-29.23,49.52-30.38Z"/>
      <path fill="#430e4c" stroke-width="0px" d="m1128.58,126.99c-25.99-13.58-29.08-36.78-24.7-52.03,5.36-18.63,24.28-30.59,39.77-29.55v35.02c-.2.12-.68.4-1.16.66-5.97,3.26-6.02,8.53-.33,12.3,5.38,3.56,10.91,7.02,15.76,11.23,21.59,18.74,25.1,50.17,10.03,72.92-10.03,15.13-24.48,23.55-42.6,25.01-7.46.6-15,.15-22.51.16-.39,0-.78-.24-1.62-.51,9.11-25.05,18.19-50.01,27.35-75.21Z"/>
      <path fill="#430e4c" stroke-width="0px" d="m1181.41,42.26c19.32,52.98,38.63,105.96,58.1,159.34-19.83,0-39.18,0-58.53,0-.87-3.08-1.15-153,.44-159.34Z"/>
    </g>
  </g>
</svg>