<svg width="19" height="36" viewBox="0 0 19 36" fill="none" xmlns="http://www.w3.org/2000/svg">
<path d="M18.7447 15.6666L18.2949 19.2788C18.2188 19.8822 17.7078 20.3361 17.1017 20.3361H11.2512V35.4387C10.6342 35.4944 10.0091 35.523 9.37712 35.523C7.96376 35.523 6.58437 35.3817 5.24983 35.1126V20.3361H0.75017C0.338391 20.3361 0 19.9977 0 19.5832V15.0646C0 14.6501 0.338391 14.3117 0.75017 14.3117H5.24983V7.5316C5.24983 3.37169 8.60929 0 12.7515 0H18.0014C18.4145 0 18.7515 0.33975 18.7515 0.752887V5.27293C18.7515 5.68607 18.4145 6.02582 18.0014 6.02582H14.2505C12.5952 6.02582 11.2512 7.37395 11.2512 9.03873V14.3117H17.5515C18.2745 14.3117 18.8331 14.9477 18.7447 15.6666Z" fill="#572C54"/>
</svg>
