<svg width="22" height="38" viewBox="0 0 22 38" fill="none" xmlns="http://www.w3.org/2000/svg">
<path d="M19.9679 16.8932L19.5181 20.5054C19.4419 21.1088 18.931 21.5627 18.3248 21.5627H12.4743V36.6653C11.8573 36.721 11.2322 36.7496 10.6003 36.7496C9.18691 36.7496 7.80752 36.6082 6.47298 36.3391V21.5627H1.97331C1.56154 21.5627 1.22314 21.2243 1.22314 20.8098V16.2911C1.22314 15.8766 1.56154 15.5382 1.97331 15.5382H6.47298V8.75816C6.47298 4.59825 9.83243 1.22656 13.9747 1.22656H19.2245C19.6376 1.22656 19.9747 1.56631 19.9747 1.97945V6.4995C19.9747 6.91263 19.6376 7.25238 19.2245 7.25238H15.4737C13.8184 7.25238 12.4743 8.60052 12.4743 10.2653V15.5382H18.7747C19.4977 15.5382 20.0562 16.1742 19.9679 16.8932Z" stroke="#330833" stroke-width="2.44621" stroke-miterlimit="10"/>
</svg>
