<svg width="34" height="33" viewBox="0 0 34 33" fill="none" xmlns="http://www.w3.org/2000/svg">
<path d="M5.21571 1.86905C6.85819 1.86905 8.18926 3.20825 8.18926 4.86075C8.18926 6.51325 6.85666 7.85245 5.21571 7.85245C3.57476 7.85245 2.24216 6.51325 2.24216 4.86075C2.24216 3.20825 3.57476 1.86905 5.21571 1.86905ZM5.21571 0C2.55203 0 0.384456 2.18081 0.384456 4.86075C0.384456 7.54069 2.55203 9.71996 5.21571 9.71996C7.87939 9.71996 10.047 7.53915 10.047 4.86075C10.047 2.18235 7.87939 0 5.21571 0Z" fill="#330833"/>
<path d="M7.79259 12.9169C7.9315 12.9169 8.04446 13.032 8.04446 13.1718V29.7398C8.04446 29.8796 7.9315 29.9947 7.79259 29.9947H2.64078C2.50187 29.9947 2.38739 29.8796 2.38739 29.7398V13.1718C2.38739 13.032 2.50187 12.9169 2.64078 12.9169H7.79259ZM7.79259 10.5149H2.64078C1.18454 10.5149 0 11.7067 0 13.1718V29.7398C0 31.2049 1.18454 32.3967 2.64078 32.3967H7.79259C9.24884 32.3967 10.4318 31.2049 10.4318 29.7398V13.1718C10.4318 11.7067 9.24731 10.5149 7.79259 10.5149Z" fill="#330833"/>
<path d="M25.1331 12.3473C28.2578 12.3473 31.358 14.6249 31.358 19.1785V28.8554C31.358 29.482 30.8482 29.9934 30.2269 29.9934H26.8321C26.2093 29.9934 25.701 29.4805 25.701 28.8554V20.8862C25.701 19.3151 24.4325 18.0404 22.8709 18.0404C21.3093 18.0404 20.0424 19.3151 20.0424 20.8862V28.8554C20.0424 29.482 19.5325 29.9934 18.9113 29.9934H15.5164C14.8936 29.9934 14.3853 29.4805 14.3853 28.8554V14.0551C14.3853 13.4285 14.8951 12.9171 15.5164 12.9171H18.9113C19.5341 12.9171 20.0424 13.43 20.0424 14.0551V14.7846C21.1735 13.3118 23.0464 12.3488 25.1346 12.3488M25.1346 9.94687C23.5914 9.94687 22.0939 10.3431 20.7903 11.0634C20.2469 10.7163 19.6027 10.5166 18.9128 10.5166H15.5179C13.5778 10.5166 11.9979 12.1046 11.9979 14.0582V28.8585C11.9979 30.8105 13.5763 32.4 15.5179 32.4H18.9128C20.8529 32.4 22.4328 30.812 22.4328 28.8585V20.8893C22.4328 20.6451 22.6297 20.4455 22.874 20.4455C23.1182 20.4455 23.3151 20.6436 23.3151 20.8893V28.8585C23.3151 30.8105 24.8935 32.4 26.8351 32.4H30.23C32.1701 32.4 33.75 30.812 33.75 28.8585V19.1815C33.75 15.6738 32.3014 13.5222 31.0848 12.335C29.5095 10.7962 27.3969 9.9484 25.1377 9.9484L25.1346 9.94687Z" fill="#330833"/>
</svg>
